<mxfile host="app.diagrams.net" modified="2021-06-24T07:33:33.068Z" agent="5.0 (Windows NT 10.0; Win64; x64) AppleWebKit/537.36 (KHTML, like Gecko) Chrome/91.0.4472.114 Safari/537.36 Edg/91.0.864.54" etag="Rr9yaF7ZB5j-yBiRcP7q" version="14.8.0" type="github">
  <diagram name="Page-1" id="55a83fd1-7818-8e21-69c5-c3457e3827bb">
    <mxGraphModel dx="2844" dy="2374" grid="1" gridSize="10" guides="1" tooltips="1" connect="1" arrows="1" fold="1" page="1" pageScale="1" pageWidth="1100" pageHeight="850" background="none" math="0" shadow="0">
      <root>
        <mxCell id="0" />
        <mxCell id="fLDsGI0jx-dW4j5vspxd-26" value="Untitled Layer" style="" parent="0" />
        <mxCell id="fLDsGI0jx-dW4j5vspxd-27" value="" style="shape=tee;whiteSpace=wrap;html=1;" vertex="1" parent="fLDsGI0jx-dW4j5vspxd-26">
          <mxGeometry x="490" y="-460" width="330" height="220" as="geometry" />
        </mxCell>
        <mxCell id="fLDsGI0jx-dW4j5vspxd-28" value="Text" style="text;html=1;align=center;verticalAlign=middle;resizable=0;points=[];autosize=1;strokeColor=none;" vertex="1" parent="fLDsGI0jx-dW4j5vspxd-26">
          <mxGeometry x="490" y="-440" width="40" height="20" as="geometry" />
        </mxCell>
        <mxCell id="fLDsGI0jx-dW4j5vspxd-29" value="" style="image;html=1;image=img/lib/clip_art/finance/Pie_Chart_128x128.png" vertex="1" parent="fLDsGI0jx-dW4j5vspxd-26">
          <mxGeometry x="190" y="-360" width="280" height="300" as="geometry" />
        </mxCell>
        <mxCell id="fLDsGI0jx-dW4j5vspxd-30" value="" style="image;html=1;image=img/lib/clip_art/finance/Credit_Card_128x128.png" vertex="1" parent="fLDsGI0jx-dW4j5vspxd-26">
          <mxGeometry x="990" y="-380" width="310" height="290" as="geometry" />
        </mxCell>
        <mxCell id="1" style="" parent="0" />
        <mxCell id="69ecfefc5c41e42c-18" style="edgeStyle=none;rounded=0;html=1;labelBackgroundColor=none;endArrow=none;strokeWidth=2;fontFamily=Verdana;fontSize=22" parent="1" source="69ecfefc5c41e42c-1" target="69ecfefc5c41e42c-3" edge="1">
          <mxGeometry relative="1" as="geometry" />
        </mxCell>
        <mxCell id="69ecfefc5c41e42c-1" value="" style="image;html=1;labelBackgroundColor=#ffffff;image=img/lib/clip_art/networking/Wireless_Router_128x128.png;rounded=1;shadow=0;comic=0;strokeWidth=2;fontSize=22" parent="1" vertex="1">
          <mxGeometry x="470" y="465" width="80" height="80" as="geometry" />
        </mxCell>
        <mxCell id="69ecfefc5c41e42c-2" value="Internet" style="image;html=1;labelBackgroundColor=#ffffff;image=img/lib/clip_art/networking/Cloud_128x128.png;rounded=1;shadow=0;comic=0;strokeWidth=2;fontSize=22;labelPosition=center;verticalLabelPosition=top;align=center;verticalAlign=bottom;" parent="1" vertex="1">
          <mxGeometry x="470" y="140" width="80" height="80" as="geometry" />
        </mxCell>
        <mxCell id="69ecfefc5c41e42c-19" style="edgeStyle=none;rounded=0;html=1;labelBackgroundColor=none;endArrow=none;strokeWidth=2;fontFamily=Verdana;fontSize=22" parent="1" source="69ecfefc5c41e42c-3" target="69ecfefc5c41e42c-2" edge="1">
          <mxGeometry relative="1" as="geometry" />
        </mxCell>
        <mxCell id="69ecfefc5c41e42c-3" value="Firewall" style="image;html=1;labelBackgroundColor=#ffffff;image=img/lib/clip_art/networking/Firewall_128x128.png;rounded=1;shadow=0;comic=0;strokeWidth=2;fontSize=22;labelPosition=right;verticalLabelPosition=middle;align=left;verticalAlign=middle;" parent="1" vertex="1">
          <mxGeometry x="470" y="290" width="80" height="80" as="geometry" />
        </mxCell>
        <mxCell id="69ecfefc5c41e42c-4" value="Tablet" style="image;html=1;labelBackgroundColor=#ffffff;image=img/lib/clip_art/computers/iPad_128x128.png;rounded=1;shadow=0;comic=0;strokeWidth=2;fontSize=22" parent="1" vertex="1">
          <mxGeometry x="510" y="790" width="80" height="80" as="geometry" />
        </mxCell>
        <mxCell id="69ecfefc5c41e42c-5" value="PC" style="image;html=1;labelBackgroundColor=#ffffff;image=img/lib/clip_art/computers/Monitor_Tower_128x128.png;rounded=1;shadow=0;comic=0;strokeWidth=2;fontSize=22" parent="1" vertex="1">
          <mxGeometry x="150" y="640" width="80" height="80" as="geometry" />
        </mxCell>
        <mxCell id="69ecfefc5c41e42c-6" value="Printer" style="image;html=1;labelBackgroundColor=#ffffff;image=img/lib/clip_art/computers/Printer_128x128.png;rounded=1;shadow=0;comic=0;strokeWidth=2;fontSize=22" parent="1" vertex="1">
          <mxGeometry x="150" y="440" width="80" height="80" as="geometry" />
        </mxCell>
        <mxCell id="69ecfefc5c41e42c-7" value="PC" style="image;html=1;labelBackgroundColor=#ffffff;image=img/lib/clip_art/computers/Workstation_128x128.png;rounded=1;shadow=0;comic=0;strokeWidth=2;fontSize=22" parent="1" vertex="1">
          <mxGeometry x="730" y="670" width="80" height="80" as="geometry" />
        </mxCell>
        <mxCell id="69ecfefc5c41e42c-8" value="Mobile" style="image;html=1;labelBackgroundColor=#ffffff;image=img/lib/clip_art/telecommunication/iPhone_128x128.png;rounded=1;shadow=0;comic=0;strokeWidth=2;fontSize=22" parent="1" vertex="1">
          <mxGeometry x="800" y="550" width="80" height="80" as="geometry" />
        </mxCell>
        <mxCell id="69ecfefc5c41e42c-9" value="Laptop" style="image;html=1;labelBackgroundColor=#ffffff;image=img/lib/clip_art/computers/Netbook_128x128.png;rounded=1;shadow=0;comic=0;strokeColor=#000000;strokeWidth=2;fillColor=#FFFFFF;fontSize=22;fontColor=#000000;" parent="1" vertex="1">
          <mxGeometry x="810" y="400" width="80" height="80" as="geometry" />
        </mxCell>
        <mxCell id="69ecfefc5c41e42c-10" value="Laptop" style="image;html=1;labelBackgroundColor=#ffffff;image=img/lib/clip_art/computers/Netbook_128x128.png;rounded=1;shadow=0;comic=0;strokeWidth=2;fontSize=22" parent="1" vertex="1">
          <mxGeometry x="320" y="710" width="80" height="80" as="geometry" />
        </mxCell>
        <mxCell id="69ecfefc5c41e42c-11" value="" style="html=1;fillColor=#CCCCCC;strokeColor=#6881B3;gradientColor=none;gradientDirection=north;strokeWidth=2;shape=mxgraph.networks.comm_link_edge;html=1;labelBackgroundColor=none;endArrow=none;fontFamily=Verdana;fontSize=22;fontColor=#000000;" parent="1" source="69ecfefc5c41e42c-6" target="69ecfefc5c41e42c-1" edge="1">
          <mxGeometry width="100" height="100" relative="1" as="geometry">
            <mxPoint x="300" y="390" as="sourcePoint" />
            <mxPoint x="400" y="290" as="targetPoint" />
          </mxGeometry>
        </mxCell>
        <mxCell id="69ecfefc5c41e42c-12" value="" style="html=1;fillColor=#CCCCCC;strokeColor=#6881B3;gradientColor=none;gradientDirection=north;strokeWidth=2;shape=mxgraph.networks.comm_link_edge;html=1;labelBackgroundColor=none;endArrow=none;fontFamily=Verdana;fontSize=22;fontColor=#000000;fontStyle=1" parent="1" source="69ecfefc5c41e42c-5" target="69ecfefc5c41e42c-1" edge="1">
          <mxGeometry width="100" height="100" relative="1" as="geometry">
            <mxPoint x="320" y="481.9565217391305" as="sourcePoint" />
            <mxPoint x="470" y="508.0434782608695" as="targetPoint" />
          </mxGeometry>
        </mxCell>
        <mxCell id="69ecfefc5c41e42c-13" value="" style="html=1;fillColor=#CCCCCC;strokeColor=#6881B3;gradientColor=none;gradientDirection=north;strokeWidth=2;shape=mxgraph.networks.comm_link_edge;html=1;labelBackgroundColor=none;endArrow=none;fontFamily=Verdana;fontSize=22;fontColor=#000000;" parent="1" source="69ecfefc5c41e42c-10" target="69ecfefc5c41e42c-1" edge="1">
          <mxGeometry width="100" height="100" relative="1" as="geometry">
            <mxPoint x="330" y="491.9565217391305" as="sourcePoint" />
            <mxPoint x="480" y="518.0434782608695" as="targetPoint" />
          </mxGeometry>
        </mxCell>
        <mxCell id="69ecfefc5c41e42c-14" value="" style="html=1;fillColor=#CCCCCC;strokeColor=#6881B3;gradientColor=none;gradientDirection=north;strokeWidth=2;shape=mxgraph.networks.comm_link_edge;html=1;labelBackgroundColor=none;endArrow=none;fontFamily=Verdana;fontSize=22;fontColor=#000000;" parent="1" source="69ecfefc5c41e42c-4" target="69ecfefc5c41e42c-1" edge="1">
          <mxGeometry width="100" height="100" relative="1" as="geometry">
            <mxPoint x="340" y="501.9565217391305" as="sourcePoint" />
            <mxPoint x="490" y="528.0434782608695" as="targetPoint" />
          </mxGeometry>
        </mxCell>
        <mxCell id="69ecfefc5c41e42c-15" value="" style="html=1;fillColor=#CCCCCC;strokeColor=#6881B3;gradientColor=none;gradientDirection=north;strokeWidth=2;shape=mxgraph.networks.comm_link_edge;html=1;labelBackgroundColor=none;endArrow=none;fontFamily=Verdana;fontSize=22;fontColor=#000000;" parent="1" source="69ecfefc5c41e42c-7" target="69ecfefc5c41e42c-1" edge="1">
          <mxGeometry width="100" height="100" relative="1" as="geometry">
            <mxPoint x="350" y="511.9565217391305" as="sourcePoint" />
            <mxPoint x="500" y="538.0434782608695" as="targetPoint" />
          </mxGeometry>
        </mxCell>
        <mxCell id="69ecfefc5c41e42c-16" value="" style="html=1;fillColor=#CCCCCC;strokeColor=#6881B3;gradientColor=none;gradientDirection=north;strokeWidth=2;shape=mxgraph.networks.comm_link_edge;html=1;labelBackgroundColor=none;endArrow=none;fontFamily=Verdana;fontSize=22;fontColor=#000000;" parent="1" source="69ecfefc5c41e42c-8" target="69ecfefc5c41e42c-1" edge="1">
          <mxGeometry width="100" height="100" relative="1" as="geometry">
            <mxPoint x="360" y="521.9565217391305" as="sourcePoint" />
            <mxPoint x="510" y="548.0434782608695" as="targetPoint" />
          </mxGeometry>
        </mxCell>
        <mxCell id="69ecfefc5c41e42c-17" value="" style="html=1;fillColor=#CCCCCC;strokeColor=#6881B3;gradientColor=none;gradientDirection=north;strokeWidth=2;shape=mxgraph.networks.comm_link_edge;html=1;labelBackgroundColor=none;endArrow=none;fontFamily=Verdana;fontSize=22;fontColor=#000000;" parent="1" source="69ecfefc5c41e42c-9" target="69ecfefc5c41e42c-1" edge="1">
          <mxGeometry width="100" height="100" relative="1" as="geometry">
            <mxPoint x="370" y="531.9565217391305" as="sourcePoint" />
            <mxPoint x="520" y="558.0434782608695" as="targetPoint" />
          </mxGeometry>
        </mxCell>
        <mxCell id="fLDsGI0jx-dW4j5vspxd-1" value="" style="shape=dataStorage;whiteSpace=wrap;html=1;fixedSize=1;" vertex="1" parent="1">
          <mxGeometry x="280" y="900" width="100" height="80" as="geometry" />
        </mxCell>
        <mxCell id="fLDsGI0jx-dW4j5vspxd-2" value="Vertical Tree Layout" style="swimlane;startSize=20;horizontal=1;childLayout=treeLayout;horizontalTree=0;resizable=0;containerType=tree;" vertex="1" parent="1">
          <mxGeometry x="710" y="1020" width="633" height="460" as="geometry" />
        </mxCell>
        <mxCell id="fLDsGI0jx-dW4j5vspxd-3" value="Root" style="whiteSpace=wrap;html=1;" vertex="1" parent="fLDsGI0jx-dW4j5vspxd-2">
          <mxGeometry x="364.40000000000003" y="40" width="100" height="40" as="geometry" />
        </mxCell>
        <mxCell id="fLDsGI0jx-dW4j5vspxd-4" value="Child 1" style="whiteSpace=wrap;html=1;" vertex="1" parent="fLDsGI0jx-dW4j5vspxd-2">
          <mxGeometry x="216" y="130" width="100" height="40" as="geometry" />
        </mxCell>
        <mxCell id="fLDsGI0jx-dW4j5vspxd-5" value="" style="edgeStyle=elbowEdgeStyle;elbow=vertical;html=1;rounded=0;" edge="1" parent="fLDsGI0jx-dW4j5vspxd-2" source="fLDsGI0jx-dW4j5vspxd-3" target="fLDsGI0jx-dW4j5vspxd-4">
          <mxGeometry relative="1" as="geometry" />
        </mxCell>
        <mxCell id="fLDsGI0jx-dW4j5vspxd-6" value="Child 2" style="whiteSpace=wrap;html=1;" vertex="1" parent="fLDsGI0jx-dW4j5vspxd-2">
          <mxGeometry x="512.8" y="130" width="100" height="40" as="geometry" />
        </mxCell>
        <mxCell id="fLDsGI0jx-dW4j5vspxd-7" value="" style="edgeStyle=elbowEdgeStyle;elbow=vertical;html=1;rounded=0;" edge="1" parent="fLDsGI0jx-dW4j5vspxd-2" source="fLDsGI0jx-dW4j5vspxd-3" target="fLDsGI0jx-dW4j5vspxd-6">
          <mxGeometry relative="1" as="geometry" />
        </mxCell>
        <mxCell id="fLDsGI0jx-dW4j5vspxd-8" value="" style="edgeStyle=elbowEdgeStyle;elbow=vertical;html=1;rounded=0;" edge="1" target="fLDsGI0jx-dW4j5vspxd-9" source="fLDsGI0jx-dW4j5vspxd-4" parent="fLDsGI0jx-dW4j5vspxd-2">
          <mxGeometry relative="1" as="geometry">
            <mxPoint x="205.99999999999994" y="1030" as="sourcePoint" />
          </mxGeometry>
        </mxCell>
        <mxCell id="fLDsGI0jx-dW4j5vspxd-9" value="Child 1" style="whiteSpace=wrap;html=1;" vertex="1" parent="fLDsGI0jx-dW4j5vspxd-2">
          <mxGeometry x="20" y="220" width="100" height="40" as="geometry" />
        </mxCell>
        <mxCell id="fLDsGI0jx-dW4j5vspxd-10" value="" style="edgeStyle=elbowEdgeStyle;elbow=vertical;html=1;rounded=0;" edge="1" target="fLDsGI0jx-dW4j5vspxd-17" source="fLDsGI0jx-dW4j5vspxd-4" parent="fLDsGI0jx-dW4j5vspxd-2">
          <mxGeometry relative="1" as="geometry">
            <mxPoint x="135.99999999999994" y="1120" as="sourcePoint" />
          </mxGeometry>
        </mxCell>
        <mxCell id="fLDsGI0jx-dW4j5vspxd-11" value="Child 1" style="whiteSpace=wrap;html=1;" vertex="1" parent="fLDsGI0jx-dW4j5vspxd-2">
          <mxGeometry x="146" y="310" width="100" height="40" as="geometry" />
        </mxCell>
        <mxCell id="fLDsGI0jx-dW4j5vspxd-12" value="" style="edgeStyle=elbowEdgeStyle;elbow=vertical;html=1;rounded=0;" edge="1" target="fLDsGI0jx-dW4j5vspxd-13" source="fLDsGI0jx-dW4j5vspxd-4" parent="fLDsGI0jx-dW4j5vspxd-2">
          <mxGeometry relative="1" as="geometry">
            <mxPoint x="275.99999999999994" y="1120" as="sourcePoint" />
          </mxGeometry>
        </mxCell>
        <mxCell id="fLDsGI0jx-dW4j5vspxd-13" value="Child 1" style="whiteSpace=wrap;html=1;" vertex="1" parent="fLDsGI0jx-dW4j5vspxd-2">
          <mxGeometry x="412" y="220" width="100" height="40" as="geometry" />
        </mxCell>
        <mxCell id="fLDsGI0jx-dW4j5vspxd-14" value="" style="edgeStyle=elbowEdgeStyle;elbow=vertical;html=1;rounded=0;" edge="1" target="fLDsGI0jx-dW4j5vspxd-15" source="fLDsGI0jx-dW4j5vspxd-11" parent="fLDsGI0jx-dW4j5vspxd-2">
          <mxGeometry relative="1" as="geometry">
            <mxPoint x="514" y="1200" as="sourcePoint" />
          </mxGeometry>
        </mxCell>
        <mxCell id="fLDsGI0jx-dW4j5vspxd-15" value="Child 1" style="whiteSpace=wrap;html=1;" vertex="1" parent="fLDsGI0jx-dW4j5vspxd-2">
          <mxGeometry x="146" y="400" width="100" height="40" as="geometry" />
        </mxCell>
        <mxCell id="fLDsGI0jx-dW4j5vspxd-16" value="" style="edgeStyle=elbowEdgeStyle;elbow=vertical;html=1;rounded=0;" edge="1" target="fLDsGI0jx-dW4j5vspxd-11" source="fLDsGI0jx-dW4j5vspxd-17" parent="fLDsGI0jx-dW4j5vspxd-2">
          <mxGeometry relative="1" as="geometry">
            <mxPoint x="514" y="1120" as="sourcePoint" />
          </mxGeometry>
        </mxCell>
        <mxCell id="fLDsGI0jx-dW4j5vspxd-17" value="Child 1" style="whiteSpace=wrap;html=1;" vertex="1" parent="fLDsGI0jx-dW4j5vspxd-2">
          <mxGeometry x="216" y="220" width="100" height="40" as="geometry" />
        </mxCell>
        <mxCell id="fLDsGI0jx-dW4j5vspxd-18" value="" style="edgeStyle=elbowEdgeStyle;elbow=vertical;html=1;rounded=0;" edge="1" target="fLDsGI0jx-dW4j5vspxd-19" source="fLDsGI0jx-dW4j5vspxd-17" parent="fLDsGI0jx-dW4j5vspxd-2">
          <mxGeometry relative="1" as="geometry">
            <mxPoint x="514" y="1190" as="sourcePoint" />
          </mxGeometry>
        </mxCell>
        <mxCell id="fLDsGI0jx-dW4j5vspxd-19" value="Child 1" style="whiteSpace=wrap;html=1;" vertex="1" parent="fLDsGI0jx-dW4j5vspxd-2">
          <mxGeometry x="286" y="310" width="100" height="40" as="geometry" />
        </mxCell>
        <mxCell id="fLDsGI0jx-dW4j5vspxd-20" value="" style="image;html=1;image=img/lib/clip_art/computers/Laptop_128x128.png" vertex="1" parent="1">
          <mxGeometry x="110" y="1110" width="80" height="80" as="geometry" />
        </mxCell>
        <mxCell id="fLDsGI0jx-dW4j5vspxd-21" value="" style="image;html=1;image=img/lib/clip_art/computers/Netbook_128x128.png" vertex="1" parent="1">
          <mxGeometry x="510" y="1050" width="80" height="80" as="geometry" />
        </mxCell>
        <mxCell id="fLDsGI0jx-dW4j5vspxd-22" value="" style="image;html=1;image=img/lib/clip_art/computers/Netbook_128x128.png" vertex="1" parent="1">
          <mxGeometry x="510" y="1050" width="80" height="80" as="geometry" />
        </mxCell>
        <mxCell id="fLDsGI0jx-dW4j5vspxd-23" value="" style="image;html=1;image=img/lib/clip_art/computers/Netbook_128x128.png" vertex="1" parent="1">
          <mxGeometry x="440" y="1250" width="80" height="80" as="geometry" />
        </mxCell>
        <mxCell id="fLDsGI0jx-dW4j5vspxd-24" value="" style="image;html=1;image=img/lib/clip_art/computers/Secure_System_128x128.png" vertex="1" parent="1">
          <mxGeometry x="390" y="1070" width="80" height="80" as="geometry" />
        </mxCell>
        <mxCell id="fLDsGI0jx-dW4j5vspxd-25" value="" style="image;html=1;image=img/lib/clip_art/computers/Virtual_Application_128x128.png" vertex="1" parent="1">
          <mxGeometry x="300" y="1190" width="80" height="80" as="geometry" />
        </mxCell>
      </root>
    </mxGraphModel>
  </diagram>
</mxfile>
